# xmcd CD database file
#
# Track frame offsets:
#	182
#	17685
#	35282
#	52837
#
# Disc length: 966 seconds
#
# Revision: 2
# Processed by: cddbd v1.4PL0 Copyright (c) Steve Scherf et al.
# Submitted via: CDex 1.50
#
DISCID=2203c404
DTITLE=Sai - human (Maxi Single)
DYEAR=1996
DGENRE=Blues
TTITLE0=human_R'n'B Radio Mix
TTITLE1=human_Radio Mix
TTITLE2=human_Radio Club Mix
TTITLE3=Let me be the one
EXTD=YEAR: 1996
EXTT0=
EXTT1=
EXTT2=
EXTT3=
PLAYORDER=
